<svg id="my-svg" width="100%" xmlns="http://www.w3.org/2000/svg" xmlns:xlink="http://www.w3.org/1999/xlink" class="statediagram" style="max-width: 996.287px; background-color: white;" viewBox="0 0 996.2867431640625 1030" role="graphics-document document" aria-roledescription="stateDiagram"><style>#my-svg{font-family:"trebuchet ms",verdana,arial,sans-serif;font-size:16px;fill:#333;}@keyframes edge-animation-frame{from{stroke-dashoffset:0;}}@keyframes dash{to{stroke-dashoffset:0;}}#my-svg .edge-animation-slow{stroke-dasharray:9,5!important;stroke-dashoffset:900;animation:dash 50s linear infinite;stroke-linecap:round;}#my-svg .edge-animation-fast{stroke-dasharray:9,5!important;stroke-dashoffset:900;animation:dash 20s linear infinite;stroke-linecap:round;}#my-svg .error-icon{fill:#552222;}#my-svg .error-text{fill:#552222;stroke:#552222;}#my-svg .edge-thickness-normal{stroke-width:1px;}#my-svg .edge-thickness-thick{stroke-width:3.5px;}#my-svg .edge-pattern-solid{stroke-dasharray:0;}#my-svg .edge-thickness-invisible{stroke-width:0;fill:none;}#my-svg .edge-pattern-dashed{stroke-dasharray:3;}#my-svg .edge-pattern-dotted{stroke-dasharray:2;}#my-svg .marker{fill:#333333;stroke:#333333;}#my-svg .marker.cross{stroke:#333333;}#my-svg svg{font-family:"trebuchet ms",verdana,arial,sans-serif;font-size:16px;}#my-svg p{margin:0;}#my-svg defs [id$="-barbEnd"]{fill:#333333;stroke:#333333;}#my-svg g.stateGroup text{fill:#9370DB;stroke:none;font-size:10px;}#my-svg g.stateGroup text{fill:#333;stroke:none;font-size:10px;}#my-svg g.stateGroup .state-title{font-weight:bolder;fill:#131300;}#my-svg g.stateGroup rect{fill:#ECECFF;stroke:#9370DB;}#my-svg g.stateGroup line{stroke:#333333;stroke-width:1;}#my-svg .transition{stroke:#333333;stroke-width:1;fill:none;}#my-svg .stateGroup .composit{fill:white;border-bottom:1px;}#my-svg .stateGroup .alt-composit{fill:#e0e0e0;border-bottom:1px;}#my-svg .state-note{stroke:#aaaa33;fill:#fff5ad;}#my-svg .state-note text{fill:black;stroke:none;font-size:10px;}#my-svg .stateLabel .box{stroke:none;stroke-width:0;fill:#ECECFF;opacity:0.5;}#my-svg .edgeLabel .label rect{fill:#ECECFF;opacity:0.5;}#my-svg .edgeLabel{background-color:rgba(232,232,232, 0.8);text-align:center;}#my-svg .edgeLabel p{background-color:rgba(232,232,232, 0.8);}#my-svg .edgeLabel rect{opacity:0.5;background-color:rgba(232,232,232, 0.8);fill:rgba(232,232,232, 0.8);}#my-svg .edgeLabel .label text{fill:#333;}#my-svg .label div .edgeLabel{color:#333;}#my-svg .stateLabel text{fill:#131300;font-size:10px;font-weight:bold;}#my-svg .node circle.state-start{fill:#333333;stroke:#333333;}#my-svg .node .fork-join{fill:#333333;stroke:#333333;}#my-svg .node circle.state-end{fill:#9370DB;stroke:white;stroke-width:1.5;}#my-svg .end-state-inner{fill:white;stroke-width:1.5;}#my-svg .node rect{fill:#ECECFF;stroke:#9370DB;stroke-width:1px;}#my-svg .node polygon{fill:#ECECFF;stroke:#9370DB;stroke-width:1px;}#my-svg [id$="-barbEnd"]{fill:#333333;}#my-svg .statediagram-cluster rect{fill:#ECECFF;stroke:#9370DB;stroke-width:1px;}#my-svg .cluster-label,#my-svg .nodeLabel{color:#131300;}#my-svg .statediagram-cluster rect.outer{rx:5px;ry:5px;}#my-svg .statediagram-state .divider{stroke:#9370DB;}#my-svg .statediagram-state .title-state{rx:5px;ry:5px;}#my-svg .statediagram-cluster.statediagram-cluster .inner{fill:white;}#my-svg .statediagram-cluster.statediagram-cluster-alt .inner{fill:#f0f0f0;}#my-svg .statediagram-cluster .inner{rx:0;ry:0;}#my-svg .statediagram-state rect.basic{rx:5px;ry:5px;}#my-svg .statediagram-state rect.divider{stroke-dasharray:10,10;fill:#f0f0f0;}#my-svg .note-edge{stroke-dasharray:5;}#my-svg .statediagram-note rect{fill:#fff5ad;stroke:#aaaa33;stroke-width:1px;rx:0;ry:0;}#my-svg .statediagram-note rect{fill:#fff5ad;stroke:#aaaa33;stroke-width:1px;rx:0;ry:0;}#my-svg .statediagram-note text{fill:black;}#my-svg .statediagram-note .nodeLabel{color:black;}#my-svg .statediagram .edgeLabel{color:red;}#my-svg [id$="-dependencyStart"],#my-svg [id$="-dependencyEnd"]{fill:#333333;stroke:#333333;stroke-width:1;}#my-svg .statediagramTitleText{text-anchor:middle;font-size:18px;fill:#333;}#my-svg [data-look="neo"].statediagram-cluster rect{fill:#ECECFF;stroke:#9370DB;stroke-width:1;}#my-svg [data-look="neo"].statediagram-cluster rect.outer{rx:5px;ry:5px;filter:drop-shadow(1px 2px 2px rgba(185, 185, 185, 1));}#my-svg .node .neo-node{stroke:#9370DB;}#my-svg [data-look="neo"].node rect,#my-svg [data-look="neo"].cluster rect,#my-svg [data-look="neo"].node polygon{stroke:#9370DB;filter:drop-shadow(1px 2px 2px rgba(185, 185, 185, 1));}#my-svg [data-look="neo"].node path{stroke:#9370DB;stroke-width:1px;}#my-svg [data-look="neo"].node .outer-path{filter:drop-shadow(1px 2px 2px rgba(185, 185, 185, 1));}#my-svg [data-look="neo"].node .neo-line path{stroke:#9370DB;filter:none;}#my-svg [data-look="neo"].node circle{stroke:#9370DB;filter:drop-shadow(1px 2px 2px rgba(185, 185, 185, 1));}#my-svg [data-look="neo"].node circle .state-start{fill:#000000;}#my-svg [data-look="neo"].icon-shape .icon{fill:#9370DB;filter:drop-shadow(1px 2px 2px rgba(185, 185, 185, 1));}#my-svg [data-look="neo"].icon-shape .icon-neo path{stroke:#9370DB;filter:drop-shadow(1px 2px 2px rgba(185, 185, 185, 1));}#my-svg :root{--mermaid-font-family:"trebuchet ms",verdana,arial,sans-serif;}</style><g><defs><marker id="my-svg_stateDiagram-barbEnd" refX="19" refY="7" markerWidth="20" markerHeight="14" markerUnits="userSpaceOnUse" orient="auto"><path d="M 19,7 L9,13 L14,7 L9,1 Z"/></marker></defs><g class="root"><g class="clusters"/><g class="edgePaths"><path d="M522.555,22L522.555,28.167C522.555,34.333,522.555,46.667,522.555,59C522.555,71.333,522.555,83.667,522.555,89.833L522.555,96" id="my-svg-edge0" class="edge-thickness-normal edge-pattern-solid transition" style="fill:none;;;fill:none" data-edge="true" data-et="edge" data-id="edge0" data-points="W3sieCI6NTIyLjU1NDY4NzUsInkiOjIyfSx7IngiOjUyMi41NTQ2ODc1LCJ5Ijo1OX0seyJ4Ijo1MjIuNTU0Njg3NSwieSI6OTZ9XQ==" data-look="classic" marker-end="url(#my-svg_stateDiagram-barbEnd)"/><path d="M522.555,136L522.555,144.167C522.555,152.333,522.555,168.667,522.555,185C522.555,201.333,522.555,217.667,522.555,225.833L522.555,234" id="my-svg-edge1" class="edge-thickness-normal edge-pattern-solid transition" style="fill:none;;;fill:none" data-edge="true" data-et="edge" data-id="edge1" data-points="W3sieCI6NTIyLjU1NDY4NzUsInkiOjEzNn0seyJ4Ijo1MjIuNTU0Njg3NSwieSI6MTg1fSx7IngiOjUyMi41NTQ2ODc1LCJ5IjoyMzR9XQ==" data-look="classic" marker-end="url(#my-svg_stateDiagram-barbEnd)"/><path d="M486.289,258.703L419.078,267.419C351.867,276.135,217.445,293.568,150.234,311.784C83.023,330,83.023,349,83.023,368C83.023,387,83.023,406,83.023,425C83.023,444,83.023,463,83.023,482C83.023,501,83.023,520,83.023,539C83.023,558,83.023,577,83.023,596C83.023,615,83.023,634,88.902,649.667C94.781,665.333,106.539,677.667,112.418,683.833L118.297,690" id="my-svg-edge2" class="edge-thickness-normal edge-pattern-solid transition" style="fill:none;;;fill:none" data-edge="true" data-et="edge" data-id="edge2" data-points="W3sieCI6NDg2LjI4OTA2MjUsInkiOjI1OC43MDMwNTcyMzQyNjk0N30seyJ4Ijo4My4wMjM0Mzc1LCJ5IjozMTF9LHsieCI6ODMuMDIzNDM3NSwieSI6MzY4fSx7IngiOjgzLjAyMzQzNzUsInkiOjQyNX0seyJ4Ijo4My4wMjM0Mzc1LCJ5Ijo0ODJ9LHsieCI6ODMuMDIzNDM3NSwieSI6NTM5fSx7IngiOjgzLjAyMzQzNzUsInkiOjU5Nn0seyJ4Ijo4My4wMjM0Mzc1LCJ5Ijo2NTN9LHsieCI6MTE4LjI5NjY2OTQwNzg5NDc0LCJ5Ijo2OTB9XQ==" data-look="classic" marker-end="url(#my-svg_stateDiagram-barbEnd)"/><path d="M558.82,262.305L594.259,270.421C629.697,278.537,700.574,294.768,736.012,312.384C771.451,330,771.451,349,771.451,368C771.451,387,771.451,406,771.451,425C771.451,444,771.451,463,771.451,482C771.451,501,771.451,520,771.451,539C771.451,558,771.451,577,771.451,596C771.451,615,771.451,634,771.451,653C771.451,672,771.451,691,771.451,710C771.451,729,771.451,748,771.451,767C771.451,786,771.451,805,771.451,824C771.451,843,771.451,862,771.451,877.667C771.451,893.333,771.451,905.667,771.451,911.833L771.451,918" id="my-svg-edge3" class="edge-thickness-normal edge-pattern-solid transition" style="fill:none;;;fill:none" data-edge="true" data-et="edge" data-id="edge3" data-points="W3sieCI6NTU4LjgyMDMxMjUsInkiOjI2Mi4zMDUyMzUzMDQ2Mjk2fSx7IngiOjc3MS40NTA3ODEyNTAzNzI1LCJ5IjozMTF9LHsieCI6NzcxLjQ1MDc4MTI1MDM3MjUsInkiOjM2OH0seyJ4Ijo3NzEuNDUwNzgxMjUwMzcyNSwieSI6NDI1fSx7IngiOjc3MS40NTA3ODEyNTAzNzI1LCJ5Ijo0ODJ9LHsieCI6NzcxLjQ1MDc4MTI1MDM3MjUsInkiOjUzOX0seyJ4Ijo3NzEuNDUwNzgxMjUwMzcyNSwieSI6NTk2fSx7IngiOjc3MS40NTA3ODEyNTAzNzI1LCJ5Ijo2NTN9LHsieCI6NzcxLjQ1MDc4MTI1MDM3MjUsInkiOjcxMH0seyJ4Ijo3NzEuNDUwNzgxMjUwMzcyNSwieSI6NzY3fSx7IngiOjc3MS40NTA3ODEyNTAzNzI1LCJ5Ijo4MjR9LHsieCI6NzcxLjQ1MDc4MTI1MDM3MjUsInkiOjg4MX0seyJ4Ijo3NzEuNDUwNzgxMjUwMzcyNSwieSI6OTE4fV0=" data-look="classic" marker-end="url(#my-svg_stateDiagram-barbEnd)"/><path d="M522.555,274L522.555,280.167C522.555,286.333,522.555,298.667,522.555,311C522.555,323.333,522.555,335.667,522.555,341.833L522.555,348" id="my-svg-edge4" class="edge-thickness-normal edge-pattern-solid transition" style="fill:none;;;fill:none" data-edge="true" data-et="edge" data-id="edge4" data-points="W3sieCI6NTIyLjU1NDY4NzUsInkiOjI3NH0seyJ4Ijo1MjIuNTU0Njg3NSwieSI6MzExfSx7IngiOjUyMi41NTQ2ODc1LCJ5IjozNDh9XQ==" data-look="classic" marker-end="url(#my-svg_stateDiagram-barbEnd)"/><path d="M522.555,388L522.555,394.167C522.555,400.333,522.555,412.667,522.555,425C522.555,437.333,522.555,449.667,522.555,455.833L522.555,462" id="my-svg-edge5" class="edge-thickness-normal edge-pattern-solid transition" style="fill:none;;;fill:none" data-edge="true" data-et="edge" data-id="edge5" data-points="W3sieCI6NTIyLjU1NDY4NzUsInkiOjM4OH0seyJ4Ijo1MjIuNTU0Njg3NSwieSI6NDI1fSx7IngiOjUyMi41NTQ2ODc1LCJ5Ijo0NjJ9XQ==" data-look="classic" marker-end="url(#my-svg_stateDiagram-barbEnd)"/><path d="M522.555,502L522.555,508.167C522.555,514.333,522.555,526.667,522.555,542.325C522.555,557.983,522.555,576.967,522.555,586.458L522.555,595.95" id="my-svg-parsing-cyclic-special-1" class="edge-thickness-normal edge-pattern-solid transition" style="fill:none;;;fill:none" data-edge="true" data-et="edge" data-id="parsing-cyclic-special-1" data-points="W3sieCI6NTIyLjU1NDY4NzUsInkiOjUwMn0seyJ4Ijo1MjIuNTU0Njg3NSwieSI6NTM5fSx7IngiOjUyMi41NTQ2ODc1LCJ5Ijo1OTUuOTQ5OTk5OTk5MjU0OX1d" data-look="classic"/><path d="M522.555,596.05L522.555,605.542C522.555,615.033,522.555,634.017,531.671,653C540.787,671.983,559.019,690.967,568.135,700.458L577.251,709.95" id="my-svg-parsing-cyclic-special-mid" class="edge-thickness-normal edge-pattern-solid transition" style="fill:none;;;fill:none" data-edge="true" data-et="edge" data-id="parsing-cyclic-special-mid" data-points="W3sieCI6NTIyLjU1NDY4NzUsInkiOjU5Ni4wNTAwMDAwMDA3NDUxfSx7IngiOjUyMi41NTQ2ODc1LCJ5Ijo2NTN9LHsieCI6NTc3LjI1MTE5NzIzMDI3MTgsInkiOjcwOS45NDk5OTk5OTkyNTQ5fV0=" data-look="classic"/><path d="M577.323,709.95L581.907,700.458C586.492,690.967,595.66,671.983,600.244,652.992C604.828,634,604.828,615,604.828,596C604.828,577,604.828,558,595.927,542.333C587.026,526.667,569.224,514.333,560.323,508.167L551.423,502" id="my-svg-parsing-cyclic-special-2" class="edge-thickness-normal edge-pattern-solid transition" style="fill:none;;;fill:none" data-edge="true" data-et="edge" data-id="parsing-cyclic-special-2" data-points="W3sieCI6NTc3LjMyMzM2NjkxMzM2NDgsInkiOjcwOS45NDk5OTk5OTkyNTQ5fSx7IngiOjYwNC44MjgxMjUsInkiOjY1M30seyJ4Ijo2MDQuODI4MTI1LCJ5Ijo1OTZ9LHsieCI6NjA0LjgyODEyNSwieSI6NTM5fSx7IngiOjU1MS40MjI1NjAzMDcwMTc1LCJ5Ijo1MDJ9XQ==" data-look="classic" marker-end="url(#my-svg_stateDiagram-barbEnd)"/><path d="M556.234,496.79L572.255,503.825C588.275,510.86,620.316,524.93,636.337,541.465C652.357,558,652.357,577,652.357,596C652.357,615,652.357,634,652.357,653C652.357,672,652.357,691,652.357,710C652.357,729,652.357,748,652.357,767C652.357,786,652.357,805,652.357,824C652.357,843,652.357,862,652.357,877.667C652.357,893.333,652.357,905.667,652.357,911.833L652.357,918" id="my-svg-edge7" class="edge-thickness-normal edge-pattern-solid transition" style="fill:none;;;fill:none" data-edge="true" data-et="edge" data-id="edge7" data-points="W3sieCI6NTU2LjIzNDM3NSwieSI6NDk2Ljc4OTczNDM5MTc5MTN9LHsieCI6NjUyLjM1NzAzMTI1MDM3MjUsInkiOjUzOX0seyJ4Ijo2NTIuMzU3MDMxMjUwMzcyNSwieSI6NTk2fSx7IngiOjY1Mi4zNTcwMzEyNTAzNzI1LCJ5Ijo2NTN9LHsieCI6NjUyLjM1NzAzMTI1MDM3MjUsInkiOjcxMH0seyJ4Ijo2NTIuMzU3MDMxMjUwMzcyNSwieSI6NzY3fSx7IngiOjY1Mi4zNTcwMzEyNTAzNzI1LCJ5Ijo4MjR9LHsieCI6NjUyLjM1NzAzMTI1MDM3MjUsInkiOjg4MX0seyJ4Ijo2NTIuMzU3MDMxMjUwMzcyNSwieSI6OTE4fV0=" data-look="classic" marker-end="url(#my-svg_stateDiagram-barbEnd)"/><path d="M488.875,487.802L439.346,496.335C389.818,504.868,290.76,521.934,241.232,536.634C191.703,551.333,191.703,563.667,191.703,569.833L191.703,576" id="my-svg-edge8" class="edge-thickness-normal edge-pattern-solid transition" style="fill:none;;;fill:none" data-edge="true" data-et="edge" data-id="edge8" data-points="W3sieCI6NDg4Ljg3NSwieSI6NDg3LjgwMjQyNzQ0ODEwOTc3fSx7IngiOjE5MS43MDMxMjUsInkiOjUzOX0seyJ4IjoxOTEuNzAzMTI1LCJ5Ijo1NzZ9XQ==" data-look="classic" marker-end="url(#my-svg_stateDiagram-barbEnd)"/><path d="M488.875,493.545L466.773,501.121C444.672,508.696,400.469,523.848,378.367,540.924C356.266,558,356.266,577,356.266,596C356.266,615,356.266,634,359.079,649.667C361.892,665.333,367.519,677.667,370.332,683.833L373.145,690" id="my-svg-edge9" class="edge-thickness-normal edge-pattern-solid transition" style="fill:none;;;fill:none" data-edge="true" data-et="edge" data-id="edge9" data-points="W3sieCI6NDg4Ljg3NSwieSI6NDkzLjU0NDYwODg3OTQ5MjZ9LHsieCI6MzU2LjI2NTYyNSwieSI6NTM5fSx7IngiOjM1Ni4yNjU2MjUsInkiOjU5Nn0seyJ4IjozNTYuMjY1NjI1LCJ5Ijo2NTN9LHsieCI6MzczLjE0NTM1MzYxODQyMTA0LCJ5Ijo2OTB9XQ==" data-look="classic" marker-end="url(#my-svg_stateDiagram-barbEnd)"/><path d="M191.703,616L191.703,622.167C191.703,628.333,191.703,640.667,185.824,653C179.945,665.333,168.188,677.667,162.309,683.833L156.43,690" id="my-svg-edge10" class="edge-thickness-normal edge-pattern-solid transition" style="fill:none;;;fill:none" data-edge="true" data-et="edge" data-id="edge10" data-points="W3sieCI6MTkxLjcwMzEyNSwieSI6NjE2fSx7IngiOjE5MS43MDMxMjUsInkiOjY1M30seyJ4IjoxNTYuNDI5ODkzMDkyMTA1MjYsInkiOjY5MH1d" data-look="classic" marker-end="url(#my-svg_stateDiagram-barbEnd)"/><path d="M265.383,615.392L289.198,621.66C313.013,627.928,360.643,640.464,381.645,652.899C402.647,665.333,397.02,677.667,394.207,683.833L391.394,690" id="my-svg-edge11" class="edge-thickness-normal edge-pattern-solid transition" style="fill:none;;;fill:none" data-edge="true" data-et="edge" data-id="edge11" data-points="W3sieCI6MjY1LjM4MjgxMjUsInkiOjYxNS4zOTIwNDkzNDg4NjkxfSx7IngiOjQwOC4yNzM0Mzc1LCJ5Ijo2NTN9LHsieCI6MzkxLjM5MzcwODg4MTU3ODk2LCJ5Ijo2OTB9XQ==" data-look="classic" marker-end="url(#my-svg_stateDiagram-barbEnd)"/><path d="M382.27,730L382.27,736.167C382.27,742.333,382.27,754.667,382.27,767C382.27,779.333,382.27,791.667,382.27,797.833L382.27,804" id="my-svg-edge12" class="edge-thickness-normal edge-pattern-solid transition" style="fill:none;;;fill:none" data-edge="true" data-et="edge" data-id="edge12" data-points="W3sieCI6MzgyLjI2OTUzMTI1LCJ5Ijo3MzB9LHsieCI6MzgyLjI2OTUzMTI1LCJ5Ijo3Njd9LHsieCI6MzgyLjI2OTUzMTI1LCJ5Ijo4MDR9XQ==" data-look="classic" marker-end="url(#my-svg_stateDiagram-barbEnd)"/><path d="M336.051,832.627L292.855,840.689C249.66,848.751,163.27,864.876,120.074,879.104C76.879,893.333,76.879,905.667,76.879,911.833L76.879,918" id="my-svg-edge13" class="edge-thickness-normal edge-pattern-solid transition" style="fill:none;;;fill:none" data-edge="true" data-et="edge" data-id="edge13" data-points="W3sieCI6MzM2LjA1MDc4MTI1LCJ5Ijo4MzIuNjI2NTU0MTA1OTA5NX0seyJ4Ijo3Ni44Nzg5MDYyNSwieSI6ODgxfSx7IngiOjc2Ljg3ODkwNjI1LCJ5Ijo5MTh9XQ==" data-look="classic" marker-end="url(#my-svg_stateDiagram-barbEnd)"/><path d="M428.488,828.861L511.12,837.55C593.752,846.24,759.015,863.62,841.647,878.477C924.279,893.333,924.279,905.667,924.279,911.833L924.279,918" id="my-svg-edge14" class="edge-thickness-normal edge-pattern-solid transition" style="fill:none;;;fill:none" data-edge="true" data-et="edge" data-id="edge14" data-points="W3sieCI6NDI4LjQ4ODI4MTI1LCJ5Ijo4MjguODYwNTU5Mzc2ODUyNX0seyJ4Ijo5MjQuMjc4OTA2MjUwMzcyNSwieSI6ODgxfSx7IngiOjkyNC4yNzg5MDYyNTAzNzI1LCJ5Ijo5MTh9XQ==" data-look="classic" marker-end="url(#my-svg_stateDiagram-barbEnd)"/><path d="M76.879,958L76.879,962.167C76.879,966.333,76.879,974.667,174.544,984.104C272.21,993.541,467.541,1004.082,565.207,1009.352L662.872,1014.622" id="my-svg-edge15" class="edge-thickness-normal edge-pattern-solid transition" style="fill:none;;;fill:none" data-edge="true" data-et="edge" data-id="edge15" data-points="W3sieCI6NzYuODc4OTA2MjUsInkiOjk1OH0seyJ4Ijo3Ni44Nzg5MDYyNSwieSI6OTgzfSx7IngiOjY2Mi44NzIyODMxNDczOTQ2LCJ5IjoxMDE0LjYyMjQ0Mzg4ODk1NTR9XQ==" data-look="classic" marker-end="url(#my-svg_stateDiagram-barbEnd)"/><path d="M137.363,730L137.363,736.167C137.363,742.333,137.363,754.667,137.363,770.333C137.363,786,137.363,805,137.363,824C137.363,843,137.363,862,137.363,881C137.363,900,137.363,919,137.363,936C137.363,953,137.363,968,224.949,980.763C312.534,993.527,487.704,1004.053,575.289,1009.316L662.875,1014.58" id="my-svg-edge16" class="edge-thickness-normal edge-pattern-solid transition" style="fill:none;;;fill:none" data-edge="true" data-et="edge" data-id="edge16" data-points="W3sieCI6MTM3LjM2MzI4MTI1LCJ5Ijo3MzB9LHsieCI6MTM3LjM2MzI4MTI1LCJ5Ijo3Njd9LHsieCI6MTM3LjM2MzI4MTI1LCJ5Ijo4MjR9LHsieCI6MTM3LjM2MzI4MTI1LCJ5Ijo4ODF9LHsieCI6MTM3LjM2MzI4MTI1LCJ5Ijo5Mzh9LHsieCI6MTM3LjM2MzI4MTI1LCJ5Ijo5ODN9LHsieCI6NjYyLjg3NDcyMDQxNDQ5MzgsInkiOjEwMTQuNTc5NzA1ODI0ODU2fV0=" data-look="classic" marker-end="url(#my-svg_stateDiagram-barbEnd)"/><path d="M652.357,958L652.357,962.167C652.357,966.333,652.357,974.667,654.715,983.142C657.073,991.618,661.789,1000.236,664.147,1004.545L666.505,1008.854" id="my-svg-edge17" class="edge-thickness-normal edge-pattern-solid transition" style="fill:none;;;fill:none" data-edge="true" data-et="edge" data-id="edge17" data-points="W3sieCI6NjUyLjM1NzAzMTI1MDM3MjUsInkiOjk1OH0seyJ4Ijo2NTIuMzU3MDMxMjUwMzcyNSwieSI6OTgzfSx7IngiOjY2Ni41MDUxNDE4OTg4MzI2LCJ5IjoxMDA4Ljg1MzUxODI3NjE5NTZ9XQ==" data-look="classic" marker-end="url(#my-svg_stateDiagram-barbEnd)"/><path d="M771.451,958L771.451,962.167C771.451,966.333,771.451,974.667,755.634,983.816C739.818,992.965,708.185,1002.93,692.368,1007.912L676.552,1012.895" id="my-svg-edge18" class="edge-thickness-normal edge-pattern-solid transition" style="fill:none;;;fill:none" data-edge="true" data-et="edge" data-id="edge18" data-points="W3sieCI6NzcxLjQ1MDc4MTI1MDM3MjUsInkiOjk1OH0seyJ4Ijo3NzEuNDUwNzgxMjUwMzcyNSwieSI6OTgzfSx7IngiOjY3Ni41NTE2NDg3NzA5MDMyLCJ5IjoxMDEyLjg5NDc3NzY2ODU5NX1d" data-look="classic" marker-end="url(#my-svg_stateDiagram-barbEnd)"/><path d="M924.279,958L924.279,962.167C924.279,966.333,924.279,974.667,883.036,984.021C841.793,993.375,759.307,1003.75,718.064,1008.938L676.821,1014.126" id="my-svg-edge19" class="edge-thickness-normal edge-pattern-solid transition" style="fill:none;;;fill:none" data-edge="true" data-et="edge" data-id="edge19" data-points="W3sieCI6OTI0LjI3ODkwNjI1MDM3MjUsInkiOjk1OH0seyJ4Ijo5MjQuMjc4OTA2MjUwMzcyNSwieSI6OTgzfSx7IngiOjY3Ni44MjA2MjAwMzE3MjU1LCJ5IjoxMDE0LjEyNTU4NTg0ODEzNDZ9XQ==" data-look="classic" marker-end="url(#my-svg_stateDiagram-barbEnd)"/></g><g class="edgeLabels"><g class="edgeLabel" transform="translate(522.5546875, 59)"><g class="label" data-id="edge0" transform="translate(-96.0078125, -12)"><foreignObject width="192.015625" height="24"><div xmlns="http://www.w3.org/1999/xhtml" class="labelBkg" style="display: table-cell; white-space: nowrap; line-height: 1.5; max-width: 200px; text-align: center;"><span class="edgeLabel"><p>智能体编排控制面分配任务</p></span></div></foreignObject></g></g><g class="edgeLabel" transform="translate(522.5546875, 185)"><g class="label" data-id="edge1" transform="translate(-56.0078125, -24)"><foreignObject width="112.015625" height="48"><div xmlns="http://www.w3.org/1999/xhtml" class="labelBkg" style="display: table-cell; white-space: nowrap; line-height: 1.5; max-width: 200px; text-align: center;"><span class="edgeLabel"><p>智能体心跳认领<br />(乐观锁 CAS)</p></span></div></foreignObject></g></g><g class="edgeLabel" transform="translate(83.0234375, 482)"><g class="label" data-id="edge2" transform="translate(-75.0234375, -12)"><foreignObject width="150.046875" height="24"><div xmlns="http://www.w3.org/1999/xhtml" class="labelBkg" style="display: table-cell; white-space: nowrap; line-height: 1.5; max-width: 200px; text-align: center;"><span class="edgeLabel"><p>HMAC 签名失败/超时</p></span></div></foreignObject></g></g><g class="edgeLabel" transform="translate(771.4507812503725, 596)"><g class="label" data-id="edge3" transform="translate(-53.6640625, -12)"><foreignObject width="107.328125" height="24"><div xmlns="http://www.w3.org/1999/xhtml" class="labelBkg" style="display: table-cell; white-space: nowrap; line-height: 1.5; max-width: 200px; text-align: center;"><span class="edgeLabel"><p>超 budget 熔断</p></span></div></foreignObject></g></g><g class="edgeLabel" transform="translate(522.5546875, 311)"><g class="label" data-id="edge4" transform="translate(-40.0078125, -12)"><foreignObject width="80.015625" height="24"><div xmlns="http://www.w3.org/1999/xhtml" class="labelBkg" style="display: table-cell; white-space: nowrap; line-height: 1.5; max-width: 200px; text-align: center;"><span class="edgeLabel"><p>触发工作流</p></span></div></foreignObject></g></g><g class="edgeLabel" transform="translate(522.5546875, 425)"><g class="label" data-id="edge5" transform="translate(-52.2734375, -12)"><foreignObject width="104.546875" height="24"><div xmlns="http://www.w3.org/1999/xhtml" class="labelBkg" style="display: table-cell; white-space: nowrap; line-height: 1.5; max-width: 200px; text-align: center;"><span class="edgeLabel"><p>NL2DSL 解析中</p></span></div></foreignObject></g></g><g class="edgeLabel"><g class="label" data-id="parsing-cyclic-special-1" transform="translate(0, 0)"><foreignObject width="0" height="0"><div xmlns="http://www.w3.org/1999/xhtml" class="labelBkg" style="display: table-cell; white-space: nowrap; line-height: 1.5; max-width: 200px; text-align: center;"><span class="edgeLabel"></span></div></foreignObject></g></g><g class="edgeLabel" transform="translate(522.5546875, 653)"><g class="label" data-id="parsing-cyclic-special-mid" transform="translate(-62.2734375, -12)"><foreignObject width="124.546875" height="24"><div xmlns="http://www.w3.org/1999/xhtml" class="labelBkg" style="display: table-cell; white-space: nowrap; line-height: 1.5; max-width: 200px; text-align: center;"><span class="edgeLabel"><p>解析失败重试(≤2)</p></span></div></foreignObject></g></g><g class="edgeLabel"><g class="label" data-id="parsing-cyclic-special-2" transform="translate(0, 0)"><foreignObject width="0" height="0"><div xmlns="http://www.w3.org/1999/xhtml" class="labelBkg" style="display: table-cell; white-space: nowrap; line-height: 1.5; max-width: 200px; text-align: center;"><span class="edgeLabel"></span></div></foreignObject></g></g><g class="edgeLabel" transform="translate(652.3570312503725, 710)"><g class="label" data-id="edge7" transform="translate(-40.0078125, -12)"><foreignObject width="80.015625" height="24"><div xmlns="http://www.w3.org/1999/xhtml" class="labelBkg" style="display: table-cell; white-space: nowrap; line-height: 1.5; max-width: 200px; text-align: center;"><span class="edgeLabel"><p>重试仍失败</p></span></div></foreignObject></g></g><g class="edgeLabel" transform="translate(191.703125, 539)"><g class="label" data-id="edge8" transform="translate(-58.3125, -12)"><foreignObject width="116.625" height="24"><div xmlns="http://www.w3.org/1999/xhtml" class="labelBkg" style="display: table-cell; white-space: nowrap; line-height: 1.5; max-width: 200px; text-align: center;"><span class="edgeLabel"><p>risk=high 写操作</p></span></div></foreignObject></g></g><g class="edgeLabel" transform="translate(356.265625, 596)"><g class="label" data-id="edge9" transform="translate(-55.8828125, -12)"><foreignObject width="111.765625" height="24"><div xmlns="http://www.w3.org/1999/xhtml" class="labelBkg" style="display: table-cell; white-space: nowrap; line-height: 1.5; max-width: 200px; text-align: center;"><span class="edgeLabel"><p>risk=low 读操作</p></span></div></foreignObject></g></g><g class="edgeLabel" transform="translate(191.703125, 653)"><g class="label" data-id="edge10" transform="translate(-32.0078125, -12)"><foreignObject width="64.015625" height="24"><div xmlns="http://www.w3.org/1999/xhtml" class="labelBkg" style="display: table-cell; white-space: nowrap; line-height: 1.5; max-width: 200px; text-align: center;"><span class="edgeLabel"><p>人工驳回</p></span></div></foreignObject></g></g><g class="edgeLabel" transform="translate(408.2734375, 653)"><g class="label" data-id="edge11" transform="translate(-32.0078125, -12)"><foreignObject width="64.015625" height="24"><div xmlns="http://www.w3.org/1999/xhtml" class="labelBkg" style="display: table-cell; white-space: nowrap; line-height: 1.5; max-width: 200px; text-align: center;"><span class="edgeLabel"><p>审批通过</p></span></div></foreignObject></g></g><g class="edgeLabel" transform="translate(382.26953125, 767)"><g class="label" data-id="edge12" transform="translate(-32.0078125, -12)"><foreignObject width="64.015625" height="24"><div xmlns="http://www.w3.org/1999/xhtml" class="labelBkg" style="display: table-cell; white-space: nowrap; line-height: 1.5; max-width: 200px; text-align: center;"><span class="edgeLabel"><p>结果组织</p></span></div></foreignObject></g></g><g class="edgeLabel" transform="translate(76.87890625, 881)"><g class="label" data-id="edge13" transform="translate(-32.0078125, -12)"><foreignObject width="64.015625" height="24"><div xmlns="http://www.w3.org/1999/xhtml" class="labelBkg" style="display: table-cell; white-space: nowrap; line-height: 1.5; max-width: 200px; text-align: center;"><span class="edgeLabel"><p>回传成功</p></span></div></foreignObject></g></g><g class="edgeLabel" transform="translate(924.2789062503725, 881)"><g class="label" data-id="edge14" transform="translate(-64.0078125, -12)"><foreignObject width="128.015625" height="24"><div xmlns="http://www.w3.org/1999/xhtml" class="labelBkg" style="display: table-cell; white-space: nowrap; line-height: 1.5; max-width: 200px; text-align: center;"><span class="edgeLabel"><p>回传失败重试用尽</p></span></div></foreignObject></g></g><g class="edgeLabel"><g class="label" data-id="edge15" transform="translate(0, 0)"><foreignObject width="0" height="0"><div xmlns="http://www.w3.org/1999/xhtml" class="labelBkg" style="display: table-cell; white-space: nowrap; line-height: 1.5; max-width: 200px; text-align: center;"><span class="edgeLabel"></span></div></foreignObject></g></g><g class="edgeLabel"><g class="label" data-id="edge16" transform="translate(0, 0)"><foreignObject width="0" height="0"><div xmlns="http://www.w3.org/1999/xhtml" class="labelBkg" style="display: table-cell; white-space: nowrap; line-height: 1.5; max-width: 200px; text-align: center;"><span class="edgeLabel"></span></div></foreignObject></g></g><g class="edgeLabel"><g class="label" data-id="edge17" transform="translate(0, 0)"><foreignObject width="0" height="0"><div xmlns="http://www.w3.org/1999/xhtml" class="labelBkg" style="display: table-cell; white-space: nowrap; line-height: 1.5; max-width: 200px; text-align: center;"><span class="edgeLabel"></span></div></foreignObject></g></g><g class="edgeLabel"><g class="label" data-id="edge18" transform="translate(0, 0)"><foreignObject width="0" height="0"><div xmlns="http://www.w3.org/1999/xhtml" class="labelBkg" style="display: table-cell; white-space: nowrap; line-height: 1.5; max-width: 200px; text-align: center;"><span class="edgeLabel"></span></div></foreignObject></g></g><g class="edgeLabel"><g class="label" data-id="edge19" transform="translate(0, 0)"><foreignObject width="0" height="0"><div xmlns="http://www.w3.org/1999/xhtml" class="labelBkg" style="display: table-cell; white-space: nowrap; line-height: 1.5; max-width: 200px; text-align: center;"><span class="edgeLabel"></span></div></foreignObject></g></g></g><g class="nodes"><g class="node default" id="my-svg-state-root_start-0" data-look="classic" transform="translate(522.5546875, 15)"><circle class="state-start" r="7" width="14" height="14"/></g><g class="node  statediagram-state" id="my-svg-state-pending-1" data-look="classic" transform="translate(522.5546875, 116)"><rect class="basic label-container" style="" rx="5" ry="5" x="-36.3203125" y="-20" width="72.640625" height="40"/><g class="label" style="" transform="translate(-28.3203125, -12)"><rect/><foreignObject width="56.640625" height="24"><div xmlns="http://www.w3.org/1999/xhtml" style="display: table-cell; white-space: nowrap; line-height: 1.5; max-width: 200px; text-align: center;"><span class="nodeLabel markdown-node-label"><p>pending</p></span></div></foreignObject></g></g><g class="node  statediagram-state" id="my-svg-state-claimed-4" data-look="classic" transform="translate(522.5546875, 254)"><rect class="basic label-container" style="" rx="5" ry="5" x="-36.265625" y="-20" width="72.53125" height="40"/><g class="label" style="" transform="translate(-28.265625, -12)"><rect/><foreignObject width="56.53125" height="24"><div xmlns="http://www.w3.org/1999/xhtml" style="display: table-cell; white-space: nowrap; line-height: 1.5; max-width: 200px; text-align: center;"><span class="nodeLabel markdown-node-label"><p>claimed</p></span></div></foreignObject></g></g><g class="node  statediagram-state" id="my-svg-state-rejected-16" data-look="classic" transform="translate(137.36328125, 710)"><rect class="basic label-container" style="" rx="5" ry="5" x="-38.7265625" y="-20" width="77.453125" height="40"/><g class="label" style="" transform="translate(-30.7265625, -12)"><rect/><foreignObject width="61.453125" height="24"><div xmlns="http://www.w3.org/1999/xhtml" style="display: table-cell; white-space: nowrap; line-height: 1.5; max-width: 200px; text-align: center;"><span class="nodeLabel markdown-node-label"><p>rejected</p></span></div></foreignObject></g></g><g class="node  statediagram-state" id="my-svg-state-throttled-18" data-look="classic" transform="translate(771.4507812503725, 938)"><rect class="basic label-container" style="" rx="5" ry="5" x="-40.46875" y="-20" width="80.9375" height="40"/><g class="label" style="" transform="translate(-32.46875, -12)"><rect/><foreignObject width="64.9375" height="24"><div xmlns="http://www.w3.org/1999/xhtml" style="display: table-cell; white-space: nowrap; line-height: 1.5; max-width: 200px; text-align: center;"><span class="nodeLabel markdown-node-label"><p>throttled</p></span></div></foreignObject></g></g><g class="node  statediagram-state" id="my-svg-state-running-5" data-look="classic" transform="translate(522.5546875, 368)"><rect class="basic label-container" style="" rx="5" ry="5" x="-34.890625" y="-20" width="69.78125" height="40"/><g class="label" style="" transform="translate(-26.890625, -12)"><rect/><foreignObject width="53.78125" height="24"><div xmlns="http://www.w3.org/1999/xhtml" style="display: table-cell; white-space: nowrap; line-height: 1.5; max-width: 200px; text-align: center;"><span class="nodeLabel markdown-node-label"><p>running</p></span></div></foreignObject></g></g><g class="node  statediagram-state" id="my-svg-state-parsing-9" data-look="classic" transform="translate(522.5546875, 482)"><rect class="basic label-container" style="" rx="5" ry="5" x="-33.6796875" y="-20" width="67.359375" height="40"/><g class="label" style="" transform="translate(-25.6796875, -12)"><rect/><foreignObject width="51.359375" height="24"><div xmlns="http://www.w3.org/1999/xhtml" style="display: table-cell; white-space: nowrap; line-height: 1.5; max-width: 200px; text-align: center;"><span class="nodeLabel markdown-node-label"><p>parsing</p></span></div></foreignObject></g></g><g class="node  statediagram-state" id="my-svg-state-failed-17" data-look="classic" transform="translate(652.3570312503725, 938)"><rect class="basic label-container" style="" rx="5" ry="5" x="-28.625" y="-20" width="57.25" height="40"/><g class="label" style="" transform="translate(-20.625, -12)"><rect/><foreignObject width="41.25" height="24"><div xmlns="http://www.w3.org/1999/xhtml" style="display: table-cell; white-space: nowrap; line-height: 1.5; max-width: 200px; text-align: center;"><span class="nodeLabel markdown-node-label"><p>failed</p></span></div></foreignObject></g></g><g class="node  statediagram-state" id="my-svg-state-awaiting_approval-11" data-look="classic" transform="translate(191.703125, 596)"><rect class="basic label-container" style="" rx="5" ry="5" x="-73.6796875" y="-20" width="147.359375" height="40"/><g class="label" style="" transform="translate(-65.6796875, -12)"><rect/><foreignObject width="131.359375" height="24"><div xmlns="http://www.w3.org/1999/xhtml" style="display: table-cell; white-space: nowrap; line-height: 1.5; max-width: 200px; text-align: center;"><span class="nodeLabel markdown-node-label"><p>awaiting_approval</p></span></div></foreignObject></g></g><g class="node  statediagram-state" id="my-svg-state-executing-12" data-look="classic" transform="translate(382.26953125, 710)"><rect class="basic label-container" style="" rx="5" ry="5" x="-42.90625" y="-20" width="85.8125" height="40"/><g class="label" style="" transform="translate(-34.90625, -12)"><rect/><foreignObject width="69.8125" height="24"><div xmlns="http://www.w3.org/1999/xhtml" style="display: table-cell; white-space: nowrap; line-height: 1.5; max-width: 200px; text-align: center;"><span class="nodeLabel markdown-node-label"><p>executing</p></span></div></foreignObject></g></g><g class="node  statediagram-state" id="my-svg-state-formatting-14" data-look="classic" transform="translate(382.26953125, 824)"><rect class="basic label-container" style="" rx="5" ry="5" x="-46.21875" y="-20" width="92.4375" height="40"/><g class="label" style="" transform="translate(-38.21875, -12)"><rect/><foreignObject width="76.4375" height="24"><div xmlns="http://www.w3.org/1999/xhtml" style="display: table-cell; white-space: nowrap; line-height: 1.5; max-width: 200px; text-align: center;"><span class="nodeLabel markdown-node-label"><p>formatting</p></span></div></foreignObject></g></g><g class="node  statediagram-state" id="my-svg-state-done-15" data-look="classic" transform="translate(76.87890625, 938)"><rect class="basic label-container" style="" rx="5" ry="5" x="-25.484375" y="-20" width="50.96875" height="40"/><g class="label" style="" transform="translate(-17.484375, -12)"><rect/><foreignObject width="34.96875" height="24"><div xmlns="http://www.w3.org/1999/xhtml" style="display: table-cell; white-space: nowrap; line-height: 1.5; max-width: 200px; text-align: center;"><span class="nodeLabel markdown-node-label"><p>done</p></span></div></foreignObject></g></g><g class="node  statediagram-state" id="my-svg-state-callback_failed-19" data-look="classic" transform="translate(924.2789062503725, 938)"><rect class="basic label-container" style="" rx="5" ry="5" x="-62.359375" y="-20" width="124.71875" height="40"/><g class="label" style="" transform="translate(-54.359375, -12)"><rect/><foreignObject width="108.71875" height="24"><div xmlns="http://www.w3.org/1999/xhtml" style="display: table-cell; white-space: nowrap; line-height: 1.5; max-width: 200px; text-align: center;"><span class="nodeLabel markdown-node-label"><p>callback_failed</p></span></div></foreignObject></g></g><g class="node default" id="my-svg-state-root_end-19" data-look="classic" transform="translate(669.8687500003725, 1015)"><g class="outer-path"><path d="M7 0 C7 0.40517908122283747, 6.964012880168563 0.816513743121899, 6.893654271085456 1.2155372436685123 C6.823295662002349 1.6145607442151257, 6.716427752933756 2.013397210557766, 6.5778483455013586 2.394141003279681 C6.439268938068961 2.7748847960015954, 6.26476736710249 3.149104622578984, 6.062177826491071 3.4999999999999996 C5.859588285879653 3.8508953774210153, 5.622755194947063 4.189128084166967, 5.362311101832846 4.499513267805774 C5.10186700871863 4.809898451444582, 4.809898451444583 5.10186700871863, 4.499513267805775 5.362311101832846 C4.189128084166968 5.622755194947063, 3.8508953774210166 5.859588285879652, 3.500000000000001 6.06217782649107 C3.149104622578985 6.264767367102489, 2.7748847960015963 6.439268938068961, 2.3941410032796817 6.5778483455013586 C2.013397210557767 6.716427752933756, 1.6145607442151264 6.823295662002349, 1.2155372436685128 6.893654271085456 C0.8165137431218992 6.964012880168563, 0.4051790812228379 7, 4.286263797015736e-16 7 C-0.405179081222837 7, -0.8165137431218985 6.964012880168563, -1.2155372436685121 6.893654271085456 C-1.6145607442151257 6.823295662002349, -2.0133972105577667 6.716427752933756, -2.394141003279681 6.5778483455013586 C-2.774884796001595 6.439268938068961, -3.149104622578983 6.26476736710249, -3.4999999999999982 6.062177826491071 C-3.8508953774210135 5.859588285879653, -4.189128084166966 5.6227551949470636, -4.499513267805773 5.362311101832848 C-4.809898451444581 5.101867008718632, -5.101867008718628 4.809898451444586, -5.3623111018328435 4.499513267805779 C-5.622755194947059 4.189128084166971, -5.859588285879649 3.8508953774210206, -6.062177826491068 3.5000000000000053 C-6.264767367102486 3.14910462257899, -6.439268938068958 2.774884796001602, -6.577848345501356 2.394141003279688 C-6.716427752933754 2.0133972105577738, -6.823295662002347 1.614560744215134, -6.893654271085454 1.215537243668521 C-6.9640128801685615 0.816513743121908, -6.999999999999999 0.4051790812228472, -7 1.0183126166254463e-14 C-7.000000000000001 -0.40517908122282686, -6.964012880168565 -0.8165137431218878, -6.893654271085459 -1.215537243668501 C-6.823295662002352 -1.6145607442151142, -6.716427752933759 -2.0133972105577542, -6.577848345501363 -2.394141003279669 C-6.439268938068967 -2.7748847960015834, -6.264767367102496 -3.149104622578972, -6.062177826491078 -3.4999999999999876 C-5.859588285879661 -3.8508953774210033, -5.6227551949470715 -4.1891280841669545, -5.362311101832856 -4.499513267805763 C-5.10186700871864 -4.809898451444571, -4.809898451444594 -5.10186700871862, -4.499513267805787 -5.362311101832836 C-4.189128084166979 -5.622755194947053, -3.850895377421028 -5.859588285879643, -3.5000000000000133 -6.062177826491062 C-3.1491046225789985 -6.264767367102482, -2.774884796001611 -6.439268938068954, -2.3941410032796973 -6.577848345501353 C-2.0133972105577835 -6.716427752933752, -1.6145607442151435 -6.823295662002345, -1.2155372436685306 -6.893654271085453 C-0.8165137431219176 -6.9640128801685615, -0.40517908122285695 -6.999999999999999, -1.9937625952807352e-14 -7 C0.4051790812228171 -7.000000000000001, 0.8165137431218781 -6.964012880168565, 1.2155372436684913 -6.89365427108546 C1.6145607442151044 -6.823295662002354, 2.013397210557745 -6.716427752933763, 2.3941410032796595 -6.5778483455013665 C2.774884796001574 -6.43926893806897, 3.149104622578963 -6.2647673671025, 3.499999999999979 -6.062177826491083 C3.8508953774209953 -5.859588285879665, 4.189128084166947 -5.622755194947077, 4.499513267805756 -5.362311101832862 C4.809898451444564 -5.1018670087186475, 5.101867008718613 -4.809898451444602, 5.362311101832829 -4.499513267805796 C5.622755194947046 -4.189128084166989, 5.859588285879637 -3.8508953774210393, 6.062177826491056 -3.500000000000025 C6.2647673671024755 -3.1491046225790105, 6.439268938068949 -2.774884796001623, 6.577848345501348 -2.3941410032797092 C6.716427752933747 -2.0133972105577955, 6.823295662002342 -1.6145607442151562, 6.893654271085451 -1.2155372436685434 C6.96401288016856 -0.8165137431219307, 6.982275711847575 -0.2025895406114567, 7 -3.2800750208310675e-14 C7.017724288152425 0.2025895406113911, 7.017724288152424 -0.2025895406114242, 7 0" stroke="none" stroke-width="0" fill="#ECECFF" style=""/><path d="M7 0 C7 0.40517908122283747, 6.964012880168563 0.816513743121899, 6.893654271085456 1.2155372436685123 C6.823295662002349 1.6145607442151257, 6.716427752933756 2.013397210557766, 6.5778483455013586 2.394141003279681 C6.439268938068961 2.7748847960015954, 6.26476736710249 3.149104622578984, 6.062177826491071 3.4999999999999996 C5.859588285879653 3.8508953774210153, 5.622755194947063 4.189128084166967, 5.362311101832846 4.499513267805774 C5.10186700871863 4.809898451444582, 4.809898451444583 5.10186700871863, 4.499513267805775 5.362311101832846 C4.189128084166968 5.622755194947063, 3.8508953774210166 5.859588285879652, 3.500000000000001 6.06217782649107 C3.149104622578985 6.264767367102489, 2.7748847960015963 6.439268938068961, 2.3941410032796817 6.5778483455013586 C2.013397210557767 6.716427752933756, 1.6145607442151264 6.823295662002349, 1.2155372436685128 6.893654271085456 C0.8165137431218992 6.964012880168563, 0.4051790812228379 7, 4.286263797015736e-16 7 C-0.405179081222837 7, -0.8165137431218985 6.964012880168563, -1.2155372436685121 6.893654271085456 C-1.6145607442151257 6.823295662002349, -2.0133972105577667 6.716427752933756, -2.394141003279681 6.5778483455013586 C-2.774884796001595 6.439268938068961, -3.149104622578983 6.26476736710249, -3.4999999999999982 6.062177826491071 C-3.8508953774210135 5.859588285879653, -4.189128084166966 5.6227551949470636, -4.499513267805773 5.362311101832848 C-4.809898451444581 5.101867008718632, -5.101867008718628 4.809898451444586, -5.3623111018328435 4.499513267805779 C-5.622755194947059 4.189128084166971, -5.859588285879649 3.8508953774210206, -6.062177826491068 3.5000000000000053 C-6.264767367102486 3.14910462257899, -6.439268938068958 2.774884796001602, -6.577848345501356 2.394141003279688 C-6.716427752933754 2.0133972105577738, -6.823295662002347 1.614560744215134, -6.893654271085454 1.215537243668521 C-6.9640128801685615 0.816513743121908, -6.999999999999999 0.4051790812228472, -7 1.0183126166254463e-14 C-7.000000000000001 -0.40517908122282686, -6.964012880168565 -0.8165137431218878, -6.893654271085459 -1.215537243668501 C-6.823295662002352 -1.6145607442151142, -6.716427752933759 -2.0133972105577542, -6.577848345501363 -2.394141003279669 C-6.439268938068967 -2.7748847960015834, -6.264767367102496 -3.149104622578972, -6.062177826491078 -3.4999999999999876 C-5.859588285879661 -3.8508953774210033, -5.6227551949470715 -4.1891280841669545, -5.362311101832856 -4.499513267805763 C-5.10186700871864 -4.809898451444571, -4.809898451444594 -5.10186700871862, -4.499513267805787 -5.362311101832836 C-4.189128084166979 -5.622755194947053, -3.850895377421028 -5.859588285879643, -3.5000000000000133 -6.062177826491062 C-3.1491046225789985 -6.264767367102482, -2.774884796001611 -6.439268938068954, -2.3941410032796973 -6.577848345501353 C-2.0133972105577835 -6.716427752933752, -1.6145607442151435 -6.823295662002345, -1.2155372436685306 -6.893654271085453 C-0.8165137431219176 -6.9640128801685615, -0.40517908122285695 -6.999999999999999, -1.9937625952807352e-14 -7 C0.4051790812228171 -7.000000000000001, 0.8165137431218781 -6.964012880168565, 1.2155372436684913 -6.89365427108546 C1.6145607442151044 -6.823295662002354, 2.013397210557745 -6.716427752933763, 2.3941410032796595 -6.5778483455013665 C2.774884796001574 -6.43926893806897, 3.149104622578963 -6.2647673671025, 3.499999999999979 -6.062177826491083 C3.8508953774209953 -5.859588285879665, 4.189128084166947 -5.622755194947077, 4.499513267805756 -5.362311101832862 C4.809898451444564 -5.1018670087186475, 5.101867008718613 -4.809898451444602, 5.362311101832829 -4.499513267805796 C5.622755194947046 -4.189128084166989, 5.859588285879637 -3.8508953774210393, 6.062177826491056 -3.500000000000025 C6.2647673671024755 -3.1491046225790105, 6.439268938068949 -2.774884796001623, 6.577848345501348 -2.3941410032797092 C6.716427752933747 -2.0133972105577955, 6.823295662002342 -1.6145607442151562, 6.893654271085451 -1.2155372436685434 C6.96401288016856 -0.8165137431219307, 6.982275711847575 -0.2025895406114567, 7 -3.2800750208310675e-14 C7.017724288152425 0.2025895406113911, 7.017724288152424 -0.2025895406114242, 7 0" stroke="#333333" stroke-width="2" fill="none" stroke-dasharray="0 0" style=""/><g><path d="M2.5 0 C2.5 0.14470681472244193, 2.487147457203058 0.29161205111496386, 2.46201938253052 0.4341204441673258 C2.436891307857982 0.5766288372196877, 2.3987241974763416 0.7190704323420595, 2.3492315519647713 0.8550503583141718 C2.299738906453201 0.991030284286284, 2.2374169168223177 1.124680222349637, 2.165063509461097 1.2499999999999998 C2.092710102099876 1.3753197776503625, 2.0081268553382365 1.496117172916774, 1.915111107797445 1.6069690242163481 C1.8220953602566536 1.7178208755159223, 1.7178208755159226 1.8220953602566536, 1.6069690242163484 1.915111107797445 C1.4961171729167742 2.0081268553382365, 1.375319777650363 2.0927101020998755, 1.2500000000000002 2.1650635094610964 C1.1246802223496375 2.2374169168223172, 0.9910302842862845 2.2997389064532, 0.8550503583141721 2.349231551964771 C0.7190704323420597 2.3987241974763416, 0.576628837219688 2.436891307857982, 0.43412044416732604 2.46201938253052 C0.291612051114964 2.487147457203058, 0.14470681472244212 2.5, 1.5308084989341916e-16 2.5 C-0.1447068147224418 2.5, -0.2916120511149638 2.487147457203058, -0.43412044416732576 2.46201938253052 C-0.5766288372196877 2.436891307857982, -0.7190704323420595 2.3987241974763416, -0.8550503583141718 2.3492315519647713 C-0.991030284286284 2.299738906453201, -1.124680222349637 2.2374169168223177, -1.2499999999999996 2.165063509461097 C-1.375319777650362 2.092710102099876, -1.4961171729167733 2.008126855338237, -1.6069690242163475 1.9151111077974459 C-1.7178208755159217 1.8220953602566548, -1.822095360256653 1.7178208755159234, -1.9151111077974443 1.6069690242163495 C-2.0081268553382357 1.4961171729167755, -2.0927101020998746 1.3753197776503645, -2.1650635094610955 1.250000000000002 C-2.2374169168223164 1.1246802223496395, -2.2997389064531992 0.9910302842862865, -2.34923155196477 0.8550503583141743 C-2.3987241974763407 0.7190704323420621, -2.436891307857981 0.5766288372196907, -2.4620193825305194 0.434120444167329 C-2.487147457203058 0.29161205111496724, -2.5 0.14470681472244545, -2.5 3.636830773662308e-15 C-2.5 -0.14470681472243818, -2.4871474572030587 -0.2916120511149599, -2.4620193825305208 -0.4341204441673218 C-2.436891307857983 -0.5766288372196837, -2.398724197476343 -0.7190704323420553, -2.3492315519647726 -0.8550503583141675 C-2.2997389064532023 -0.9910302842862798, -2.23741691682232 -1.1246802223496328, -2.165063509461099 -1.2499999999999956 C-2.092710102099878 -1.3753197776503583, -2.00812685533824 -1.4961171729167695, -1.9151111077974488 -1.606969024216344 C-1.8220953602566576 -1.7178208755159183, -1.7178208755159263 -1.82209536025665, -1.6069690242163523 -1.9151111077974416 C-1.4961171729167784 -2.0081268553382334, -1.3753197776503672 -2.0927101020998724, -1.2500000000000047 -2.1650635094610937 C-1.1246802223496422 -2.237416916822315, -0.9910302842862897 -2.299738906453198, -0.8550503583141776 -2.3492315519647686 C-0.7190704323420656 -2.3987241974763394, -0.5766288372196942 -2.4368913078579806, -0.43412044416733236 -2.462019382530519 C-0.29161205111497057 -2.4871474572030574, -0.1447068147224489 -2.4999999999999996, -7.120580697431198e-15 -2.5 C0.14470681472243463 -2.5000000000000004, 0.29161205111495647 -2.487147457203059, 0.4341204441673183 -2.4620193825305217 C0.5766288372196802 -2.436891307857984, 0.7190704323420518 -2.3987241974763442, 0.8550503583141642 -2.349231551964774 C0.9910302842862766 -2.2997389064532037, 1.1246802223496295 -2.2374169168223212, 1.2499999999999925 -2.165063509461101 C1.3753197776503554 -2.0927101020998804, 1.4961171729167668 -2.008126855338242, 1.6069690242163412 -1.915111107797451 C1.7178208755159157 -1.82209536025666, 1.8220953602566472 -1.7178208755159294, 1.915111107797439 -1.6069690242163557 C2.0081268553382308 -1.496117172916782, 2.09271010209987 -1.3753197776503712, 2.1650635094610915 -1.2500000000000089 C2.237416916822313 -1.1246802223496466, 2.299738906453196 -0.9910302842862939, 2.3492315519647673 -0.855050358314182 C2.3987241974763385 -0.71907043234207, 2.4368913078579792 -0.5766288372196986, 2.462019382530518 -0.4341204441673369 C2.487147457203057 -0.29161205111497523, 2.4936698970884197 -0.07235340736123454, 2.5 -1.1714553645825241e-14 C2.5063301029115803 0.07235340736121111, 2.50633010291158 -0.07235340736122292, 2.5 0" stroke="none" stroke-width="0" fill="#9370DB" style=""/><path d="M2.5 0 C2.5 0.14470681472244193, 2.487147457203058 0.29161205111496386, 2.46201938253052 0.4341204441673258 C2.436891307857982 0.5766288372196877, 2.3987241974763416 0.7190704323420595, 2.3492315519647713 0.8550503583141718 C2.299738906453201 0.991030284286284, 2.2374169168223177 1.124680222349637, 2.165063509461097 1.2499999999999998 C2.092710102099876 1.3753197776503625, 2.0081268553382365 1.496117172916774, 1.915111107797445 1.6069690242163481 C1.8220953602566536 1.7178208755159223, 1.7178208755159226 1.8220953602566536, 1.6069690242163484 1.915111107797445 C1.4961171729167742 2.0081268553382365, 1.375319777650363 2.0927101020998755, 1.2500000000000002 2.1650635094610964 C1.1246802223496375 2.2374169168223172, 0.9910302842862845 2.2997389064532, 0.8550503583141721 2.349231551964771 C0.7190704323420597 2.3987241974763416, 0.576628837219688 2.436891307857982, 0.43412044416732604 2.46201938253052 C0.291612051114964 2.487147457203058, 0.14470681472244212 2.5, 1.5308084989341916e-16 2.5 C-0.1447068147224418 2.5, -0.2916120511149638 2.487147457203058, -0.43412044416732576 2.46201938253052 C-0.5766288372196877 2.436891307857982, -0.7190704323420595 2.3987241974763416, -0.8550503583141718 2.3492315519647713 C-0.991030284286284 2.299738906453201, -1.124680222349637 2.2374169168223177, -1.2499999999999996 2.165063509461097 C-1.375319777650362 2.092710102099876, -1.4961171729167733 2.008126855338237, -1.6069690242163475 1.9151111077974459 C-1.7178208755159217 1.8220953602566548, -1.822095360256653 1.7178208755159234, -1.9151111077974443 1.6069690242163495 C-2.0081268553382357 1.4961171729167755, -2.0927101020998746 1.3753197776503645, -2.1650635094610955 1.250000000000002 C-2.2374169168223164 1.1246802223496395, -2.2997389064531992 0.9910302842862865, -2.34923155196477 0.8550503583141743 C-2.3987241974763407 0.7190704323420621, -2.436891307857981 0.5766288372196907, -2.4620193825305194 0.434120444167329 C-2.487147457203058 0.29161205111496724, -2.5 0.14470681472244545, -2.5 3.636830773662308e-15 C-2.5 -0.14470681472243818, -2.4871474572030587 -0.2916120511149599, -2.4620193825305208 -0.4341204441673218 C-2.436891307857983 -0.5766288372196837, -2.398724197476343 -0.7190704323420553, -2.3492315519647726 -0.8550503583141675 C-2.2997389064532023 -0.9910302842862798, -2.23741691682232 -1.1246802223496328, -2.165063509461099 -1.2499999999999956 C-2.092710102099878 -1.3753197776503583, -2.00812685533824 -1.4961171729167695, -1.9151111077974488 -1.606969024216344 C-1.8220953602566576 -1.7178208755159183, -1.7178208755159263 -1.82209536025665, -1.6069690242163523 -1.9151111077974416 C-1.4961171729167784 -2.0081268553382334, -1.3753197776503672 -2.0927101020998724, -1.2500000000000047 -2.1650635094610937 C-1.1246802223496422 -2.237416916822315, -0.9910302842862897 -2.299738906453198, -0.8550503583141776 -2.3492315519647686 C-0.7190704323420656 -2.3987241974763394, -0.5766288372196942 -2.4368913078579806, -0.43412044416733236 -2.462019382530519 C-0.29161205111497057 -2.4871474572030574, -0.1447068147224489 -2.4999999999999996, -7.120580697431198e-15 -2.5 C0.14470681472243463 -2.5000000000000004, 0.29161205111495647 -2.487147457203059, 0.4341204441673183 -2.4620193825305217 C0.5766288372196802 -2.436891307857984, 0.7190704323420518 -2.3987241974763442, 0.8550503583141642 -2.349231551964774 C0.9910302842862766 -2.2997389064532037, 1.1246802223496295 -2.2374169168223212, 1.2499999999999925 -2.165063509461101 C1.3753197776503554 -2.0927101020998804, 1.4961171729167668 -2.008126855338242, 1.6069690242163412 -1.915111107797451 C1.7178208755159157 -1.82209536025666, 1.8220953602566472 -1.7178208755159294, 1.915111107797439 -1.6069690242163557 C2.0081268553382308 -1.496117172916782, 2.09271010209987 -1.3753197776503712, 2.1650635094610915 -1.2500000000000089 C2.237416916822313 -1.1246802223496466, 2.299738906453196 -0.9910302842862939, 2.3492315519647673 -0.855050358314182 C2.3987241974763385 -0.71907043234207, 2.4368913078579792 -0.5766288372196986, 2.462019382530518 -0.4341204441673369 C2.487147457203057 -0.29161205111497523, 2.4936698970884197 -0.07235340736123454, 2.5 -1.1714553645825241e-14 C2.5063301029115803 0.07235340736121111, 2.50633010291158 -0.07235340736122292, 2.5 0" stroke="#9370DB" stroke-width="2" fill="none" stroke-dasharray="0 0" style=""/></g></g></g><g class="label edgeLabel" id="parsing---parsing---1" transform="translate(522.5546875, 596)"><rect width="0.1" height="0.1"/><g class="label" style="" transform="translate(0, 0)"><rect/><foreignObject width="0" height="0"><div xmlns="http://www.w3.org/1999/xhtml" style="display: table-cell; white-space: nowrap; line-height: 1.5; max-width: 10px; text-align: center;"><span class="nodeLabel"></span></div></foreignObject></g></g><g class="label edgeLabel" id="parsing---parsing---2" transform="translate(577.2992187496275, 710)"><rect width="0.1" height="0.1"/><g class="label" style="" transform="translate(0, 0)"><rect/><foreignObject width="0" height="0"><div xmlns="http://www.w3.org/1999/xhtml" style="display: table-cell; white-space: nowrap; line-height: 1.5; max-width: 10px; text-align: center;"><span class="nodeLabel"></span></div></foreignObject></g></g></g></g></g><defs><filter id="my-svg-drop-shadow" height="130%" width="130%"><feDropShadow dx="4" dy="4" stdDeviation="0" flood-opacity="0.06" flood-color="#000000"/></filter></defs><defs><filter id="my-svg-drop-shadow-small" height="150%" width="150%"><feDropShadow dx="2" dy="2" stdDeviation="0" flood-opacity="0.06" flood-color="#000000"/></filter></defs></svg>